<svg xmlns="http://www.w3.org/2000/svg" xmlns:xlink="http://www.w3.org/1999/xlink" width="300" zoomAndPan="magnify" viewBox="0 0 224.87999 74.999997" height="100" preserveAspectRatio="xMidYMid meet" version="1.0"><defs><g/><clipPath id="74e3d55e45"><path d="M 1.703125 3.765625 L 66.871094 3.765625 L 66.871094 68.980469 L 1.703125 68.980469 Z M 1.703125 3.765625 " clip-rule="nonzero"/></clipPath></defs><g clip-path="url(#74e3d55e45)"><path fill="#ffd600" d="M 34.3125 3.765625 L 66.917969 36.371094 L 66.917969 3.765625 Z M 34.3125 3.765625 L 34.3125 36.371094 L 1.703125 3.765625 Z M 34.3125 68.976562 L 1.707031 36.371094 L 34.3125 36.371094 Z M 66.917969 68.976562 L 34.3125 36.371094 L 66.917969 36.371094 Z M 66.917969 68.976562 " fill-opacity="1" fill-rule="nonzero"/></g><g fill="#000000" fill-opacity="1"><g transform="translate(78.854721, 27.90744)"><g><path d="M 27.464844 0 L 24.300781 -20.519531 L 19.84375 -20.519531 L 14.273438 -7.914062 L 8.707031 -20.519531 L 4.28125 -20.519531 L 1.054688 0 L 5.570312 0 L 7.59375 -13.367188 L 13.71875 -0.03125 L 14.804688 -0.03125 L 20.929688 -13.367188 L 22.953125 0 Z M 27.464844 0 "/></g></g></g><g fill="#000000" fill-opacity="1"><g transform="translate(107.425636, 27.90744)"><g><path d="M 6.769531 -4.105469 L 6.769531 -8.324219 L 13.894531 -8.324219 L 13.894531 -12.339844 L 6.769531 -12.339844 L 6.769531 -16.414062 L 14.65625 -16.414062 L 14.65625 -20.519531 L 2.34375 -20.519531 L 2.34375 0 L 14.980469 0 L 14.980469 -4.105469 Z M 6.769531 -4.105469 "/></g></g></g><g fill="#000000" fill-opacity="1"><g transform="translate(123.80629, 27.90744)"><g><path d="M 10.082031 -20.519531 L 2.34375 -20.519531 L 2.34375 0 L 10.082031 0 C 16.121094 0 20.488281 -4.308594 20.488281 -10.257812 C 20.488281 -16.210938 16.121094 -20.519531 10.082031 -20.519531 Z M 9.996094 -4.105469 L 6.769531 -4.105469 L 6.769531 -16.386719 L 9.996094 -16.386719 C 13.511719 -16.386719 15.945312 -13.894531 15.945312 -10.257812 C 15.945312 -6.683594 13.511719 -4.105469 9.996094 -4.105469 Z M 9.996094 -4.105469 "/></g></g></g><g fill="#000000" fill-opacity="1"><g transform="translate(145.520187, 27.90744)"><g><path d="M 2.34375 0 L 6.769531 0 L 6.769531 -20.519531 L 2.34375 -20.519531 Z M 2.34375 0 "/></g></g></g><g fill="#000000" fill-opacity="1"><g transform="translate(154.662876, 27.90744)"><g><path d="M 15.945312 0 L 20.78125 0 L 12.488281 -20.519531 L 8.296875 -20.519531 L 0.234375 0 L 4.953125 0 L 6.359375 -3.871094 L 14.507812 -3.871094 Z M 10.433594 -15.097656 L 13.132812 -7.738281 L 7.738281 -7.738281 Z M 10.433594 -15.097656 "/></g></g></g><g fill="#000000" fill-opacity="1"><g transform="translate(78.854721, 59.522442)"><g><path d="M 15.945312 0 L 20.78125 0 L 12.488281 -20.519531 L 8.296875 -20.519531 L 0.234375 0 L 4.953125 0 L 6.359375 -3.871094 L 14.507812 -3.871094 Z M 10.433594 -15.097656 L 13.132812 -7.738281 L 7.738281 -7.738281 Z M 10.433594 -15.097656 "/></g></g></g><g fill="#000000" fill-opacity="1"><g transform="translate(99.894631, 59.522442)"><g><path d="M 11.34375 -10.699219 L 11.34375 -7.296875 L 17.5 -7.296875 C 16.738281 -5.1875 14.421875 -3.78125 11.785156 -3.78125 C 8.089844 -3.78125 5.65625 -6.417969 5.65625 -10.230469 C 5.65625 -14.070312 8.148438 -16.707031 11.785156 -16.707031 C 14.363281 -16.707031 16.53125 -15.332031 17.410156 -13.132812 L 21.984375 -13.132812 C 21.015625 -17.734375 16.796875 -20.957031 11.695312 -20.957031 C 5.628906 -20.957031 1.144531 -16.355469 1.144531 -10.230469 C 1.144531 -4.074219 5.746094 0.46875 11.785156 0.46875 C 17.9375 0.46875 22.25 -4.28125 22.25 -10.699219 Z M 11.34375 -10.699219 "/></g></g></g><g fill="#000000" fill-opacity="1"><g transform="translate(123.24952, 59.522442)"><g><path d="M 6.769531 -4.105469 L 6.769531 -8.324219 L 13.894531 -8.324219 L 13.894531 -12.339844 L 6.769531 -12.339844 L 6.769531 -16.414062 L 14.65625 -16.414062 L 14.65625 -20.519531 L 2.34375 -20.519531 L 2.34375 0 L 14.980469 0 L 14.980469 -4.105469 Z M 6.769531 -4.105469 "/></g></g></g><g fill="#000000" fill-opacity="1"><g transform="translate(139.630175, 59.522442)"><g><path d="M 15.332031 -20.519531 L 15.332031 -8.003906 L 6.332031 -20.519531 L 2.34375 -20.519531 L 2.34375 0 L 6.683594 0 L 6.683594 -12.808594 L 15.976562 0 L 19.699219 0 L 19.699219 -20.519531 Z M 15.332031 -20.519531 "/></g></g></g><g fill="#000000" fill-opacity="1"><g transform="translate(161.66641, 59.522442)"><g><path d="M 11.753906 0.46875 C 16.824219 0.46875 20.8125 -2.929688 21.75 -8.003906 L 17.265625 -8.003906 C 16.53125 -5.421875 14.449219 -3.78125 11.753906 -3.78125 C 8.265625 -3.78125 5.65625 -6.535156 5.65625 -10.230469 C 5.65625 -13.921875 8.265625 -16.707031 11.753906 -16.707031 C 14.332031 -16.707031 16.386719 -15.183594 17.234375 -12.78125 L 21.660156 -12.78125 C 20.722656 -17.644531 16.738281 -20.957031 11.753906 -20.957031 C 5.714844 -20.957031 1.144531 -16.328125 1.144531 -10.230469 C 1.144531 -4.164062 5.714844 0.46875 11.753906 0.46875 Z M 11.753906 0.46875 "/></g></g></g><g fill="#000000" fill-opacity="1"><g transform="translate(184.259407, 59.522442)"><g><path d="M 19.433594 -20.519531 L 14.6875 -20.519531 L 9.9375 -12.28125 L 5.21875 -20.519531 L 0.5 -20.519531 L 7.652344 -8.296875 L 7.652344 0 L 12.195312 0 L 12.195312 -8.265625 Z M 19.433594 -20.519531 "/></g></g></g></svg>